<?xml version="1.0" encoding="UTF-8" standalone="no"?>
<!DOCTYPE svg PUBLIC "-//W3C//DTD SVG 1.1//EN"
 "http://www.w3.org/Graphics/SVG/1.1/DTD/svg11.dtd">
<!-- Generated by graphviz version 2.49.3 (20211023.0002)
 -->
<!-- Title: G Pages: 1 -->
<svg width="1953pt" height="561pt"
 viewBox="0.00 0.00 1952.96 560.69" xmlns="http://www.w3.org/2000/svg" xmlns:xlink="http://www.w3.org/1999/xlink">
<g id="graph0" class="graph" transform="scale(1 1) rotate(0) translate(4 556.69)">
<title>G</title><style>.edge>path:hover{stroke-width:8}</style>
<polygon fill="white" stroke="transparent" points="-4,4 -4,-556.69 1948.96,-556.69 1948.96,4 -4,4"/>
<!-- OpenGL -->
<g id="node1" class="node">
<title>OpenGL</title><style>.edge>path:hover{stroke-width:8}</style>
<ellipse fill="#e61919" stroke="black" cx="842" cy="-280.64" rx="31.58" ry="18"/>
<text text-anchor="middle" x="842" y="-278.14" font-family="Helvetica,sans-Serif" font-size="10.00" fill="#ffffff">OpenGL</text>
</g>
<!-- launchables_eye -->
<g id="node6" class="node">
<title>launchables_eye</title><style>.edge>path:hover{stroke-width:8}</style>
<ellipse fill="#4c7326" stroke="black" cx="805" cy="-130.21" rx="51.74" ry="21.43"/>
<text text-anchor="middle" x="805" y="-133.21" font-family="Helvetica,sans-Serif" font-size="10.00" fill="#ffffff">launchables.</text>
<text text-anchor="middle" x="805" y="-122.21" font-family="Helvetica,sans-Serif" font-size="10.00" fill="#ffffff">eye</text>
</g>
<!-- OpenGL&#45;&gt;launchables_eye -->
<g id="edge1" class="edge">
<title>OpenGL&#45;&gt;launchables_eye</title><style>.edge>path:hover{stroke-width:8}</style>
<path fill="none" stroke="black" d="M819.62,-267.62C786.9,-249.72 729.69,-217.02 728,-206.43"/>
<path fill="none" stroke="black" d="M728,-204.43C724.39,-181.73 742.52,-163.79 762.1,-151.35"/>
<polygon fill="#e61919" stroke="black" points="763.99,-154.29 770.81,-146.19 760.43,-148.27 763.99,-154.29"/>
</g>
<!-- launchables_player -->
<g id="node8" class="node">
<title>launchables_player</title><style>.edge>path:hover{stroke-width:8}</style>
<ellipse fill="#4c7326" stroke="black" cx="1047" cy="-130.21" rx="51.74" ry="21.43"/>
<text text-anchor="middle" x="1047" y="-133.21" font-family="Helvetica,sans-Serif" font-size="10.00" fill="#ffffff">launchables.</text>
<text text-anchor="middle" x="1047" y="-122.21" font-family="Helvetica,sans-Serif" font-size="10.00" fill="#ffffff">player</text>
</g>
<!-- OpenGL&#45;&gt;launchables_player -->
<g id="edge2" class="edge">
<title>OpenGL&#45;&gt;launchables_player</title><style>.edge>path:hover{stroke-width:8}</style>
<path fill="none" stroke="black" d="M835.08,-262.77C828.27,-243.42 821.56,-213.43 842,-206.43"/>
</g>
<!-- launchables_world -->
<g id="node10" class="node">
<title>launchables_world</title><style>.edge>path:hover{stroke-width:8}</style>
<ellipse fill="#517a28" stroke="black" cx="926" cy="-130.21" rx="51.74" ry="21.43"/>
<text text-anchor="middle" x="926" y="-133.21" font-family="Helvetica,sans-Serif" font-size="10.00" fill="#ffffff">launchables.</text>
<text text-anchor="middle" x="926" y="-122.21" font-family="Helvetica,sans-Serif" font-size="10.00" fill="#ffffff">world</text>
</g>
<!-- OpenGL&#45;&gt;launchables_world -->
<g id="edge3" class="edge">
<title>OpenGL&#45;&gt;launchables_world</title><style>.edge>path:hover{stroke-width:8}</style>
<path fill="none" stroke="black" d="M833.5,-263.13C824.78,-243.71 814.28,-211.11 828,-187.43 838.6,-169.13 857.64,-156.28 876.15,-147.53"/>
<polygon fill="#e61919" stroke="black" points="877.69,-150.67 885.43,-143.43 874.87,-144.26 877.69,-150.67"/>
</g>
<!-- OpenGL_GL -->
<g id="node2" class="node">
<title>OpenGL_GL</title><style>.edge>path:hover{stroke-width:8}</style>
<ellipse fill="#d02424" stroke="black" cx="679" cy="-280.64" rx="41.41" ry="18"/>
<text text-anchor="middle" x="679" y="-278.14" font-family="Helvetica,sans-Serif" font-size="10.00" fill="#ffffff">OpenGL.GL</text>
</g>
<!-- OpenGL_GL&#45;&gt;launchables_eye -->
<g id="edge4" class="edge">
<title>OpenGL_GL&#45;&gt;launchables_eye</title><style>.edge>path:hover{stroke-width:8}</style>
<path fill="none" stroke="black" d="M651.03,-267.27C643.94,-264.43 636.26,-261.61 629,-259.43 514.79,-225.16 293.27,-300.92 366,-206.43"/>
</g>
<!-- OpenGL_GL&#45;&gt;launchables_player -->
<g id="edge5" class="edge">
<title>OpenGL_GL&#45;&gt;launchables_player</title><style>.edge>path:hover{stroke-width:8}</style>
<path fill="none" stroke="black" d="M704.66,-266.33C736.27,-250.35 791.96,-223.57 842,-206.43"/>
</g>
<!-- OpenGL_GL&#45;&gt;launchables_world -->
<g id="edge6" class="edge">
<title>OpenGL_GL&#45;&gt;launchables_world</title><style>.edge>path:hover{stroke-width:8}</style>
<path fill="none" stroke="black" d="M658.38,-264.92C637.53,-248.46 611.01,-222.06 631,-206.43"/>
</g>
<!-- cv2 -->
<g id="node3" class="node">
<title>cv2</title><style>.edge>path:hover{stroke-width:8}</style>
<ellipse fill="#b3804c" stroke="black" cx="27" cy="-280.64" rx="27" ry="18"/>
<text text-anchor="middle" x="27" y="-278.14" font-family="Helvetica,sans-Serif" font-size="10.00" fill="#000000">cv2</text>
</g>
<!-- cv2&#45;&gt;launchables_eye -->
<g id="edge7" class="edge">
<title>cv2&#45;&gt;launchables_eye</title><style>.edge>path:hover{stroke-width:8}</style>
<path fill="none" stroke="black" d="M366,-204.43C417.73,-137.21 661.41,-170.73 744,-151.43 748.4,-150.4 752.93,-149.19 757.44,-147.89"/>
<polygon fill="#b3804c" stroke="black" points="758.68,-151.17 767.23,-144.9 756.65,-144.47 758.68,-151.17"/>
<path fill="none" stroke="black" d="M46.96,-268.39C53.5,-265.09 60.91,-261.75 68,-259.43 195.82,-217.49 283.95,-313.03 366,-206.43"/>
</g>
<!-- glfw -->
<g id="node4" class="node">
<title>glfw</title><style>.edge>path:hover{stroke-width:8}</style>
<ellipse fill="#cece3b" stroke="black" cx="919" cy="-280.64" rx="27" ry="18"/>
<text text-anchor="middle" x="919" y="-278.14" font-family="Helvetica,sans-Serif" font-size="10.00" fill="#000000">glfw</text>
</g>
<!-- glfw&#45;&gt;launchables_eye -->
<g id="edge8" class="edge">
<title>glfw&#45;&gt;launchables_eye</title><style>.edge>path:hover{stroke-width:8}</style>
<path fill="none" stroke="black" d="M899.53,-267.86C894.26,-264.91 888.5,-261.88 883,-259.43 816.54,-229.7 739.44,-278.33 728,-206.43"/>
</g>
<!-- glfw&#45;&gt;launchables_player -->
<g id="edge9" class="edge">
<title>glfw&#45;&gt;launchables_player</title><style>.edge>path:hover{stroke-width:8}</style>
<path fill="none" stroke="black" d="M1047,-204.43C1051.32,-190.86 1051.86,-175.14 1051.1,-161.76"/>
<polygon fill="#cece3b" stroke="black" points="1054.57,-161.28 1050.26,-151.61 1047.6,-161.86 1054.57,-161.28"/>
<path fill="none" stroke="black" d="M940.14,-269.16C961.45,-258.38 995.11,-240.76 1023,-223.43 1034.1,-216.53 1043.03,-218.88 1047,-206.43"/>
</g>
<!-- glfw&#45;&gt;launchables_world -->
<g id="edge10" class="edge">
<title>glfw&#45;&gt;launchables_world</title><style>.edge>path:hover{stroke-width:8}</style>
<path fill="none" stroke="black" d="M1009,-204.43C1005.42,-181.54 986.81,-163.98 968.12,-151.8"/>
<polygon fill="#cece3b" stroke="black" points="969.94,-148.8 959.58,-146.58 966.29,-154.78 969.94,-148.8"/>
<path fill="none" stroke="black" d="M939.28,-268.59C966.67,-252.94 1011.79,-224.24 1009,-206.43"/>
</g>
<!-- launchables -->
<g id="node5" class="node">
<title>launchables</title><style>.edge>path:hover{stroke-width:8}</style>
<ellipse fill="#85b653" stroke="black" cx="694" cy="-130.21" rx="41.41" ry="18"/>
<text text-anchor="middle" x="694" y="-127.71" font-family="Helvetica,sans-Serif" font-size="10.00" fill="#000000">launchables</text>
</g>
<!-- main_py -->
<g id="node11" class="node">
<title>main_py</title><style>.edge>path:hover{stroke-width:8}</style>
<ellipse fill="#3c713c" stroke="black" cx="1248" cy="-18" rx="30.72" ry="18"/>
<text text-anchor="middle" x="1248" y="-15.5" font-family="Helvetica,sans-Serif" font-size="10.00" fill="#ffffff">main.py</text>
</g>
<!-- launchables&#45;&gt;main_py -->
<g id="edge11" class="edge">
<title>launchables&#45;&gt;main_py</title><style>.edge>path:hover{stroke-width:8}</style>
<path fill="none" stroke="black" d="M1248,-72C1252.51,-64.33 1253.62,-54.9 1253.24,-46.12"/>
<polygon fill="#85b653" stroke="black" points="1256.7,-45.5 1252.18,-35.91 1249.73,-46.22 1256.7,-45.5"/>
<path fill="none" stroke="black" d="M721.01,-116.51C728.32,-113.56 736.34,-110.78 744,-109 798.69,-96.32 1219.53,-121.39 1248,-73"/>
</g>
<!-- launchables_eye&#45;&gt;main_py -->
<g id="edge12" class="edge">
<title>launchables_eye&#45;&gt;main_py</title><style>.edge>path:hover{stroke-width:8}</style>
<path fill="none" stroke="black" d="M842.08,-115.24C849.58,-112.83 857.47,-110.6 865,-109 906.81,-100.12 1226.32,-109.84 1248,-73"/>
</g>
<!-- launchables_marker_detectors -->
<g id="node7" class="node">
<title>launchables_marker_detectors</title><style>.edge>path:hover{stroke-width:8}</style>
<ellipse fill="#80b34c" stroke="black" cx="1342" cy="-130.21" rx="66.44" ry="21.43"/>
<text text-anchor="middle" x="1342" y="-133.21" font-family="Helvetica,sans-Serif" font-size="10.00" fill="#000000">launchables.</text>
<text text-anchor="middle" x="1342" y="-122.21" font-family="Helvetica,sans-Serif" font-size="10.00" fill="#000000">marker_detectors</text>
</g>
<!-- launchables_marker_detectors&#45;&gt;main_py -->
<g id="edge13" class="edge">
<title>launchables_marker_detectors&#45;&gt;main_py</title><style>.edge>path:hover{stroke-width:8}</style>
<path fill="none" stroke="black" d="M1288.24,-117.65C1260.66,-108.9 1235.27,-94.63 1248,-73"/>
</g>
<!-- launchables_player&#45;&gt;main_py -->
<g id="edge14" class="edge">
<title>launchables_player&#45;&gt;main_py</title><style>.edge>path:hover{stroke-width:8}</style>
<path fill="none" stroke="black" d="M1085.27,-115.84C1092.46,-113.47 1099.94,-111.09 1107,-109 1169.02,-90.66 1215.2,-128.74 1248,-73"/>
</g>
<!-- launchables_service -->
<g id="node9" class="node">
<title>launchables_service</title><style>.edge>path:hover{stroke-width:8}</style>
<ellipse fill="#75b03a" stroke="black" cx="1168" cy="-130.21" rx="51.74" ry="21.43"/>
<text text-anchor="middle" x="1168" y="-133.21" font-family="Helvetica,sans-Serif" font-size="10.00" fill="#000000">launchables.</text>
<text text-anchor="middle" x="1168" y="-122.21" font-family="Helvetica,sans-Serif" font-size="10.00" fill="#000000">service</text>
</g>
<!-- launchables_service&#45;&gt;main_py -->
<g id="edge15" class="edge">
<title>launchables_service&#45;&gt;main_py</title><style>.edge>path:hover{stroke-width:8}</style>
<path fill="none" stroke="black" d="M1201.77,-114.03C1218.53,-104.67 1237.41,-90.99 1248,-73"/>
</g>
<!-- launchables_world&#45;&gt;main_py -->
<g id="edge16" class="edge">
<title>launchables_world&#45;&gt;main_py</title><style>.edge>path:hover{stroke-width:8}</style>
<path fill="none" stroke="black" d="M963.45,-115.39C970.85,-113 978.62,-110.73 986,-109 1043.21,-95.56 1218.2,-123.65 1248,-73"/>
</g>
<!-- ndsi -->
<g id="node12" class="node">
<title>ndsi</title><style>.edge>path:hover{stroke-width:8}</style>
<ellipse fill="#40c080" stroke="black" cx="311" cy="-280.64" rx="27" ry="18"/>
<text text-anchor="middle" x="311" y="-278.14" font-family="Helvetica,sans-Serif" font-size="10.00" fill="#000000">ndsi</text>
</g>
<!-- ndsi&#45;&gt;launchables_eye -->
<g id="edge17" class="edge">
<title>ndsi&#45;&gt;launchables_eye</title><style>.edge>path:hover{stroke-width:8}</style>
<path fill="none" stroke="black" d="M322.48,-264.13C333.54,-249.26 350.78,-226.21 366,-206.43"/>
</g>
<!-- numpy -->
<g id="node13" class="node">
<title>numpy</title><style>.edge>path:hover{stroke-width:8}</style>
<ellipse fill="#26d9d9" stroke="black" cx="82" cy="-366.84" rx="27.84" ry="18"/>
<text text-anchor="middle" x="82" y="-364.34" font-family="Helvetica,sans-Serif" font-size="10.00" fill="#000000">numpy</text>
</g>
<!-- numpy&#45;&gt;cv2 -->
<g id="edge18" class="edge">
<title>numpy&#45;&gt;cv2</title><style>.edge>path:hover{stroke-width:8}</style>
<path fill="none" stroke="black" d="M71.65,-350.01C63.59,-337.66 52.24,-320.29 43.01,-306.15"/>
<polygon fill="#26d9d9" stroke="black" points="45.7,-303.87 37.3,-297.41 39.84,-307.69 45.7,-303.87"/>
</g>
<!-- numpy&#45;&gt;launchables_eye -->
<g id="edge19" class="edge">
<title>numpy&#45;&gt;launchables_eye</title><style>.edge>path:hover{stroke-width:8}</style>
<path fill="none" stroke="black" d="M79.71,-348.87C77.57,-325.42 77.62,-283.29 101,-259.43 185.05,-173.62 292.97,-301.79 366,-206.43"/>
</g>
<!-- numpy&#45;&gt;launchables_player -->
<g id="edge20" class="edge">
<title>numpy&#45;&gt;launchables_player</title><style>.edge>path:hover{stroke-width:8}</style>
<path fill="none" stroke="black" d="M109.6,-364.99C249.52,-360.51 876.83,-338.5 955,-301.85 1008.34,-276.84 1029.12,-262.56 1047,-206.43"/>
</g>
<!-- psutil -->
<g id="node14" class="node">
<title>psutil</title><style>.edge>path:hover{stroke-width:8}</style>
<ellipse fill="#407fc0" stroke="black" cx="137" cy="-280.64" rx="27" ry="18"/>
<text text-anchor="middle" x="137" y="-278.14" font-family="Helvetica,sans-Serif" font-size="10.00" fill="#ffffff">psutil</text>
</g>
<!-- psutil&#45;&gt;launchables_eye -->
<g id="edge21" class="edge">
<title>psutil&#45;&gt;launchables_eye</title><style>.edge>path:hover{stroke-width:8}</style>
<path fill="none" stroke="black" d="M156,-267.84C161.36,-264.82 167.3,-261.77 173,-259.43 255.28,-225.62 311.75,-276.92 366,-206.43"/>
</g>
<!-- pyglui -->
<g id="node15" class="node">
<title>pyglui</title><style>.edge>path:hover{stroke-width:8}</style>
<ellipse fill="#3b3bce" stroke="black" cx="501" cy="-280.64" rx="27" ry="18"/>
<text text-anchor="middle" x="501" y="-278.14" font-family="Helvetica,sans-Serif" font-size="10.00" fill="#ffffff">pyglui</text>
</g>
<!-- pyglui&#45;&gt;launchables_eye -->
<g id="edge22" class="edge">
<title>pyglui&#45;&gt;launchables_eye</title><style>.edge>path:hover{stroke-width:8}</style>
<path fill="none" stroke="black" d="M480.86,-268.24C475.7,-265.34 470.15,-262.25 465,-259.43 421.24,-235.43 335.56,-245.98 366,-206.43"/>
</g>
<!-- pyglui&#45;&gt;launchables_player -->
<g id="edge23" class="edge">
<title>pyglui&#45;&gt;launchables_player</title><style>.edge>path:hover{stroke-width:8}</style>
<path fill="none" stroke="black" d="M519.86,-267.47C525.22,-264.45 531.19,-261.49 537,-259.43 666.63,-213.31 711.84,-251.02 842,-206.43"/>
</g>
<!-- pyglui&#45;&gt;launchables_world -->
<g id="edge24" class="edge">
<title>pyglui&#45;&gt;launchables_world</title><style>.edge>path:hover{stroke-width:8}</style>
<path fill="none" stroke="black" d="M520.91,-268.45C557.19,-248.06 630.39,-206.91 631,-206.43"/>
</g>
<!-- pyglui_cygl -->
<g id="node16" class="node">
<title>pyglui_cygl</title><style>.edge>path:hover{stroke-width:8}</style>
<ellipse fill="#3b3bce" stroke="black" cx="583" cy="-280.64" rx="37.17" ry="18"/>
<text text-anchor="middle" x="583" y="-278.14" font-family="Helvetica,sans-Serif" font-size="10.00" fill="#ffffff">pyglui.cygl</text>
</g>
<!-- pyglui_cygl&#45;&gt;launchables_eye -->
<g id="edge25" class="edge">
<title>pyglui_cygl&#45;&gt;launchables_eye</title><style>.edge>path:hover{stroke-width:8}</style>
<path fill="none" stroke="black" d="M556.94,-267.58C550.48,-264.76 543.54,-261.87 537,-259.43 462.46,-231.6 317.47,-269.48 366,-206.43"/>
</g>
<!-- pyglui_cygl&#45;&gt;launchables_player -->
<g id="edge26" class="edge">
<title>pyglui_cygl&#45;&gt;launchables_player</title><style>.edge>path:hover{stroke-width:8}</style>
<path fill="none" stroke="black" d="M608.48,-267.52C615.08,-264.64 622.23,-261.74 629,-259.43 721.32,-227.91 749.71,-238.05 842,-206.43"/>
</g>
<!-- pyglui_cygl&#45;&gt;launchables_world -->
<g id="edge27" class="edge">
<title>pyglui_cygl&#45;&gt;launchables_world</title><style>.edge>path:hover{stroke-width:8}</style>
<path fill="none" stroke="black" d="M590.11,-262.8C597.88,-246.26 611.85,-221.41 631,-206.43"/>
</g>
<!-- pyglui_cygl_utils -->
<g id="node17" class="node">
<title>pyglui_cygl_utils</title><style>.edge>path:hover{stroke-width:8}</style>
<ellipse fill="#3b3bce" stroke="black" cx="1012" cy="-366.84" rx="31.64" ry="28.98"/>
<text text-anchor="middle" x="1012" y="-375.34" font-family="Helvetica,sans-Serif" font-size="10.00" fill="#ffffff">pyglui.</text>
<text text-anchor="middle" x="1012" y="-364.34" font-family="Helvetica,sans-Serif" font-size="10.00" fill="#ffffff">cygl.</text>
<text text-anchor="middle" x="1012" y="-353.34" font-family="Helvetica,sans-Serif" font-size="10.00" fill="#ffffff">utils</text>
</g>
<!-- pyglui_cygl_utils&#45;&gt;launchables_eye -->
<g id="edge28" class="edge">
<title>pyglui_cygl_utils&#45;&gt;launchables_eye</title><style>.edge>path:hover{stroke-width:8}</style>
<path fill="none" stroke="black" d="M980.11,-364.78C858.62,-360.42 429.42,-342.25 385,-301.85 353.01,-272.76 339.62,-240.7 366,-206.43"/>
</g>
<!-- pyglui_cygl_utils&#45;&gt;launchables_player -->
<g id="edge29" class="edge">
<title>pyglui_cygl_utils&#45;&gt;launchables_player</title><style>.edge>path:hover{stroke-width:8}</style>
<path fill="none" stroke="black" d="M1041.35,-354.84C1082.76,-338.52 1154.38,-307.11 1164,-281.64"/>
<path fill="none" stroke="black" d="M1164,-279.64C1183.6,-227.77 1126.35,-179.71 1085.16,-153.03"/>
<polygon fill="#3b3bce" stroke="black" points="1086.97,-150.03 1076.65,-147.66 1083.24,-155.95 1086.97,-150.03"/>
</g>
<!-- pyglui_cygl_utils&#45;&gt;launchables_world -->
<g id="edge30" class="edge">
<title>pyglui_cygl_utils&#45;&gt;launchables_world</title><style>.edge>path:hover{stroke-width:8}</style>
<path fill="none" stroke="black" d="M1013.77,-337.71C1015.25,-305.7 1016.12,-251.96 1009,-206.43"/>
</g>
<!-- pyglui_graph -->
<g id="node18" class="node">
<title>pyglui_graph</title><style>.edge>path:hover{stroke-width:8}</style>
<ellipse fill="#5353b6" stroke="black" cx="224" cy="-280.64" rx="41.59" ry="18"/>
<text text-anchor="middle" x="224" y="-278.14" font-family="Helvetica,sans-Serif" font-size="10.00" fill="#ffffff">pyglui.graph</text>
</g>
<!-- pyglui_graph&#45;&gt;launchables_eye -->
<g id="edge31" class="edge">
<title>pyglui_graph&#45;&gt;launchables_eye</title><style>.edge>path:hover{stroke-width:8}</style>
<path fill="none" stroke="black" d="M253.84,-267.8C290.97,-252.5 351.28,-225.55 366,-206.43"/>
</g>
<!-- pyglui_pyfontstash -->
<g id="node19" class="node">
<title>pyglui_pyfontstash</title><style>.edge>path:hover{stroke-width:8}</style>
<ellipse fill="#5353b6" stroke="black" cx="1088" cy="-280.64" rx="48.17" ry="21.43"/>
<text text-anchor="middle" x="1088" y="-283.64" font-family="Helvetica,sans-Serif" font-size="10.00" fill="#ffffff">pyglui.</text>
<text text-anchor="middle" x="1088" y="-272.64" font-family="Helvetica,sans-Serif" font-size="10.00" fill="#ffffff">pyfontstash</text>
</g>
<!-- pyglui_pyfontstash&#45;&gt;launchables_player -->
<g id="edge32" class="edge">
<title>pyglui_pyfontstash&#45;&gt;launchables_player</title><style>.edge>path:hover{stroke-width:8}</style>
<path fill="none" stroke="black" d="M1067.67,-261.34C1054.4,-247.08 1040.63,-226.41 1047,-206.43"/>
</g>
<!-- pyglui_pyfontstash_fontstash -->
<g id="node20" class="node">
<title>pyglui_pyfontstash_fontstash</title><style>.edge>path:hover{stroke-width:8}</style>
<ellipse fill="#5353b6" stroke="black" cx="1164" cy="-366.84" rx="49.49" ry="28.98"/>
<text text-anchor="middle" x="1164" y="-375.34" font-family="Helvetica,sans-Serif" font-size="10.00" fill="#ffffff">pyglui.</text>
<text text-anchor="middle" x="1164" y="-364.34" font-family="Helvetica,sans-Serif" font-size="10.00" fill="#ffffff">pyfontstash.</text>
<text text-anchor="middle" x="1164" y="-353.34" font-family="Helvetica,sans-Serif" font-size="10.00" fill="#ffffff">fontstash</text>
</g>
<!-- pyglui_pyfontstash_fontstash&#45;&gt;launchables_player -->
<g id="edge33" class="edge">
<title>pyglui_pyfontstash_fontstash&#45;&gt;launchables_player</title><style>.edge>path:hover{stroke-width:8}</style>
<path fill="none" stroke="black" d="M1160.81,-337.79C1159.71,-321.23 1159.68,-300 1164,-281.64"/>
</g>
<!-- pyglui_ui -->
<g id="node21" class="node">
<title>pyglui_ui</title><style>.edge>path:hover{stroke-width:8}</style>
<ellipse fill="#3b3bce" stroke="black" cx="425" cy="-280.64" rx="31.4" ry="18"/>
<text text-anchor="middle" x="425" y="-278.14" font-family="Helvetica,sans-Serif" font-size="10.00" fill="#ffffff">pyglui.ui</text>
</g>
<!-- pyglui_ui&#45;&gt;launchables_eye -->
<g id="edge34" class="edge">
<title>pyglui_ui&#45;&gt;launchables_eye</title><style>.edge>path:hover{stroke-width:8}</style>
<path fill="none" stroke="black" d="M403.36,-267.59C380.28,-253.19 349.17,-228.29 366,-206.43"/>
</g>
<!-- pyglui_ui&#45;&gt;launchables_player -->
<g id="edge35" class="edge">
<title>pyglui_ui&#45;&gt;launchables_player</title><style>.edge>path:hover{stroke-width:8}</style>
<path fill="none" stroke="black" d="M842,-204.43C896.28,-185.83 958.28,-163.54 999.76,-148.48"/>
<polygon fill="#3b3bce" stroke="black" points="1001.12,-151.71 1009.32,-145 998.73,-145.13 1001.12,-151.71"/>
<path fill="none" stroke="black" d="M446.03,-267.34C451.99,-264.32 458.6,-261.39 465,-259.43 626.72,-209.65 681.93,-261.27 842,-206.43"/>
</g>
<!-- pyglui_ui&#45;&gt;launchables_world -->
<g id="edge36" class="edge">
<title>pyglui_ui&#45;&gt;launchables_world</title><style>.edge>path:hover{stroke-width:8}</style>
<path fill="none" stroke="black" d="M631,-204.43C715.34,-138.46 762.91,-180.33 866,-151.43 870.05,-150.29 874.23,-149.04 878.4,-147.74"/>
<polygon fill="#3b3bce" stroke="black" points="879.64,-151.02 888.1,-144.64 877.5,-144.36 879.64,-151.02"/>
<path fill="none" stroke="black" d="M447.13,-267.67C452.87,-264.79 459.1,-261.84 465,-259.43 536.68,-230.09 570,-254.14 631,-206.43"/>
</g>
<!-- rich -->
<g id="node22" class="node">
<title>rich</title><style>.edge>path:hover{stroke-width:8}</style>
<ellipse fill="#7005db" stroke="black" cx="1631" cy="-130.21" rx="27" ry="18"/>
<text text-anchor="middle" x="1631" y="-127.71" font-family="Helvetica,sans-Serif" font-size="10.00" fill="#ffffff">rich</text>
</g>
<!-- rich&#45;&gt;main_py -->
<g id="edge37" class="edge">
<title>rich&#45;&gt;main_py</title><style>.edge>path:hover{stroke-width:8}</style>
<path fill="none" stroke="black" d="M1604.63,-125.99C1517.31,-115.22 1243.41,-80.79 1248,-73"/>
</g>
<!-- rich__extension -->
<g id="node23" class="node">
<title>rich__extension</title><style>.edge>path:hover{stroke-width:8}</style>
<ellipse fill="#7a49ac" stroke="black" cx="1899" cy="-453.05" rx="45.92" ry="21.43"/>
<text text-anchor="middle" x="1899" y="-456.05" font-family="Helvetica,sans-Serif" font-size="10.00" fill="#ffffff">rich.</text>
<text text-anchor="middle" x="1899" y="-445.05" font-family="Helvetica,sans-Serif" font-size="10.00" fill="#ffffff">_extension</text>
</g>
<!-- rich__extension&#45;&gt;rich -->
<g id="edge38" class="edge">
<title>rich__extension&#45;&gt;rich</title><style>.edge>path:hover{stroke-width:8}</style>
<path fill="none" stroke="black" d="M1893.93,-431.85C1880.36,-382.11 1838.38,-253.01 1754,-187.43 1727.04,-166.47 1691.02,-151.19 1664.93,-141.89"/>
<polygon fill="#7a49ac" stroke="black" points="1666.05,-138.57 1655.46,-138.62 1663.77,-145.19 1666.05,-138.57"/>
</g>
<!-- rich__inspect -->
<g id="node24" class="node">
<title>rich__inspect</title><style>.edge>path:hover{stroke-width:8}</style>
<ellipse fill="#7546a4" stroke="black" cx="1702" cy="-205.43" rx="42.94" ry="18"/>
<text text-anchor="middle" x="1702" y="-202.93" font-family="Helvetica,sans-Serif" font-size="10.00" fill="#ffffff">rich._inspect</text>
</g>
<!-- rich__inspect&#45;&gt;rich -->
<g id="edge39" class="edge">
<title>rich__inspect&#45;&gt;rich</title><style>.edge>path:hover{stroke-width:8}</style>
<path fill="none" stroke="black" d="M1686.59,-188.54C1676.65,-178.29 1663.58,-164.81 1652.6,-153.49"/>
<polygon fill="#7546a4" stroke="black" points="1654.88,-150.81 1645.41,-146.07 1649.86,-155.69 1654.88,-150.81"/>
</g>
<!-- rich__log_render -->
<g id="node25" class="node">
<title>rich__log_render</title><style>.edge>path:hover{stroke-width:8}</style>
<ellipse fill="#753ab0" stroke="black" cx="1554" cy="-280.64" rx="49.49" ry="21.43"/>
<text text-anchor="middle" x="1554" y="-283.64" font-family="Helvetica,sans-Serif" font-size="10.00" fill="#ffffff">rich.</text>
<text text-anchor="middle" x="1554" y="-272.64" font-family="Helvetica,sans-Serif" font-size="10.00" fill="#ffffff">_log_render</text>
</g>
<!-- rich_console -->
<g id="node27" class="node">
<title>rich_console</title><style>.edge>path:hover{stroke-width:8}</style>
<ellipse fill="#6605c7" stroke="black" cx="1624" cy="-453.05" rx="41.41" ry="18"/>
<text text-anchor="middle" x="1624" y="-450.55" font-family="Helvetica,sans-Serif" font-size="10.00" fill="#ffffff">rich.console</text>
</g>
<!-- rich_logging -->
<g id="node29" class="node">
<title>rich_logging</title><style>.edge>path:hover{stroke-width:8}</style>
<ellipse fill="#613a88" stroke="black" cx="1554" cy="-205.43" rx="40.06" ry="18"/>
<text text-anchor="middle" x="1554" y="-202.93" font-family="Helvetica,sans-Serif" font-size="10.00" fill="#ffffff">rich.logging</text>
</g>
<!-- rich__log_render&#45;&gt;rich_logging -->
<g id="edge41" class="edge">
<title>rich__log_render&#45;&gt;rich_logging</title><style>.edge>path:hover{stroke-width:8}</style>
<path fill="none" stroke="black" d="M1554,-259.25C1554,-251.39 1554,-242.29 1554,-233.88"/>
<polygon fill="#753ab0" stroke="black" points="1557.5,-233.74 1554,-223.74 1550.5,-233.74 1557.5,-233.74"/>
</g>
<!-- rich__null_file -->
<g id="node26" class="node">
<title>rich__null_file</title><style>.edge>path:hover{stroke-width:8}</style>
<ellipse fill="#8547c2" stroke="black" cx="1451" cy="-531.48" rx="39.7" ry="21.43"/>
<text text-anchor="middle" x="1451" y="-534.48" font-family="Helvetica,sans-Serif" font-size="10.00" fill="#ffffff">rich.</text>
<text text-anchor="middle" x="1451" y="-523.48" font-family="Helvetica,sans-Serif" font-size="10.00" fill="#ffffff">_null_file</text>
</g>
<!-- rich__null_file&#45;&gt;rich_console -->
<g id="edge42" class="edge">
<title>rich__null_file&#45;&gt;rich_console</title><style>.edge>path:hover{stroke-width:8}</style>
<path fill="none" stroke="black" d="M1480.74,-517.34C1510.07,-504.38 1554.99,-484.54 1586.69,-470.53"/>
<polygon fill="#8547c2" stroke="black" points="1588.34,-473.63 1596.08,-466.38 1585.52,-467.22 1588.34,-473.63"/>
</g>
<!-- rich__null_file&#45;&gt;rich_logging -->
<g id="edge43" class="edge">
<title>rich__null_file&#45;&gt;rich_logging</title><style>.edge>path:hover{stroke-width:8}</style>
<path fill="none" stroke="black" d="M1555,-365.84C1547.04,-353.09 1545.88,-349.18 1536,-337.85 1520.28,-319.83 1505.73,-323.7 1496,-301.85 1488.33,-284.63 1488.39,-276.68 1496,-259.43 1501.74,-246.4 1512.45,-235.18 1523.11,-226.47"/>
<polygon fill="#8547c2" stroke="black" points="1525.36,-229.15 1531.17,-220.3 1521.1,-223.59 1525.36,-229.15"/>
<path fill="none" stroke="black" d="M1555,-452.05C1565.8,-416.22 1573.01,-400.65 1555,-367.84"/>
<path fill="none" stroke="black" d="M1477.75,-515.83C1506.73,-499.19 1549.58,-472.02 1555,-454.05"/>
</g>
<!-- rich_console&#45;&gt;rich -->
<g id="edge44" class="edge">
<title>rich_console&#45;&gt;rich</title><style>.edge>path:hover{stroke-width:8}</style>
<path fill="none" stroke="black" d="M1624.38,-434.8C1625.53,-382.14 1628.99,-223.13 1630.4,-158.74"/>
<polygon fill="#6605c7" stroke="black" points="1633.9,-158.62 1630.62,-148.55 1626.9,-158.47 1633.9,-158.62"/>
</g>
<!-- rich_console&#45;&gt;rich__inspect -->
<g id="edge45" class="edge">
<title>rich_console&#45;&gt;rich__inspect</title><style>.edge>path:hover{stroke-width:8}</style>
<path fill="none" stroke="black" d="M1659.68,-443.79C1687.79,-435.69 1726.38,-420.84 1752,-395.84 1785,-363.62 1785.98,-346.87 1796,-301.85 1800.1,-283.45 1805.51,-275.71 1796,-259.43 1785.09,-240.74 1764.89,-228.13 1746.01,-219.91"/>
<polygon fill="#6605c7" stroke="black" points="1747.18,-216.61 1736.6,-216.12 1744.56,-223.11 1747.18,-216.61"/>
</g>
<!-- rich_console&#45;&gt;rich__log_render -->
<g id="edge46" class="edge">
<title>rich_console&#45;&gt;rich__log_render</title><style>.edge>path:hover{stroke-width:8}</style>
<path fill="none" stroke="black" d="M1613.19,-425.73C1600.45,-394.71 1579.34,-343.32 1566.07,-311.03"/>
<polygon fill="#6605c7" stroke="black" points="1609.99,-427.17 1617.03,-435.09 1616.47,-424.51 1609.99,-427.17"/>
<polygon fill="#6605c7" stroke="black" points="1569.26,-309.59 1562.23,-301.67 1562.79,-312.25 1569.26,-309.59"/>
</g>
<!-- rich_highlighter -->
<g id="node28" class="node">
<title>rich_highlighter</title><style>.edge>path:hover{stroke-width:8}</style>
<ellipse fill="#7a24d0" stroke="black" cx="1742" cy="-280.64" rx="44.6" ry="21.43"/>
<text text-anchor="middle" x="1742" y="-283.64" font-family="Helvetica,sans-Serif" font-size="10.00" fill="#ffffff">rich.</text>
<text text-anchor="middle" x="1742" y="-272.64" font-family="Helvetica,sans-Serif" font-size="10.00" fill="#ffffff">highlighter</text>
</g>
<!-- rich_console&#45;&gt;rich_highlighter -->
<g id="edge47" class="edge">
<title>rich_console&#45;&gt;rich_highlighter</title><style>.edge>path:hover{stroke-width:8}</style>
<path fill="none" stroke="black" d="M1668.12,-439.64C1690.35,-431.03 1715.58,-417.19 1730,-395.84 1746.52,-371.37 1747.94,-337 1746.21,-312.37"/>
<polygon fill="#6605c7" stroke="black" points="1666.7,-436.42 1658.49,-443.12 1669.09,-443.01 1666.7,-436.42"/>
<polygon fill="#6605c7" stroke="black" points="1749.67,-311.77 1745.27,-302.13 1742.7,-312.41 1749.67,-311.77"/>
</g>
<!-- rich_console&#45;&gt;rich_logging -->
<g id="edge48" class="edge">
<title>rich_console&#45;&gt;rich_logging</title><style>.edge>path:hover{stroke-width:8}</style>
<path fill="none" stroke="black" d="M1608.54,-435.81C1598.34,-424.84 1584.91,-409.85 1574,-395.84 1564.76,-383.97 1562.96,-380.6 1555,-367.84"/>
</g>
<!-- rich_text -->
<g id="node30" class="node">
<title>rich_text</title><style>.edge>path:hover{stroke-width:8}</style>
<ellipse fill="#7a0ce9" stroke="black" cx="1690" cy="-366.84" rx="30.72" ry="18"/>
<text text-anchor="middle" x="1690" y="-364.34" font-family="Helvetica,sans-Serif" font-size="10.00" fill="#ffffff">rich.text</text>
</g>
<!-- rich_console&#45;&gt;rich_text -->
<g id="edge49" class="edge">
<title>rich_console&#45;&gt;rich_text</title><style>.edge>path:hover{stroke-width:8}</style>
<path fill="none" stroke="black" d="M1642.96,-427.86C1651.88,-416.48 1662.48,-402.95 1671.36,-391.62"/>
<polygon fill="#6605c7" stroke="black" points="1640.14,-425.78 1636.73,-435.81 1645.65,-430.1 1640.14,-425.78"/>
<polygon fill="#6605c7" stroke="black" points="1674.35,-393.49 1677.76,-383.46 1668.84,-389.17 1674.35,-393.49"/>
</g>
<!-- rich_traceback -->
<g id="node31" class="node">
<title>rich_traceback</title><style>.edge>path:hover{stroke-width:8}</style>
<ellipse fill="#702db4" stroke="black" cx="1555" cy="-531.48" rx="46.51" ry="18"/>
<text text-anchor="middle" x="1555" y="-528.98" font-family="Helvetica,sans-Serif" font-size="10.00" fill="#ffffff">rich.traceback</text>
</g>
<!-- rich_highlighter&#45;&gt;rich__inspect -->
<g id="edge51" class="edge">
<title>rich_highlighter&#45;&gt;rich__inspect</title><style>.edge>path:hover{stroke-width:8}</style>
<path fill="none" stroke="black" d="M1731.28,-260.02C1726.61,-251.47 1721.07,-241.33 1716.07,-232.18"/>
<polygon fill="#7a24d0" stroke="black" points="1718.99,-230.22 1711.12,-223.12 1712.84,-233.57 1718.99,-230.22"/>
</g>
<!-- rich_highlighter&#45;&gt;rich_logging -->
<g id="edge53" class="edge">
<title>rich_highlighter&#45;&gt;rich_logging</title><style>.edge>path:hover{stroke-width:8}</style>
<path fill="none" stroke="black" d="M1708.39,-266.55C1675.99,-253.93 1627.01,-234.86 1592.93,-221.59"/>
<polygon fill="#7a24d0" stroke="black" points="1593.89,-218.21 1583.31,-217.84 1591.35,-224.73 1593.89,-218.21"/>
</g>
<!-- rich_highlighter&#45;&gt;rich_traceback -->
<g id="edge54" class="edge">
<title>rich_highlighter&#45;&gt;rich_traceback</title><style>.edge>path:hover{stroke-width:8}</style>
<path fill="none" stroke="black" d="M1761.44,-299.83C1789.76,-328.51 1837.93,-386.7 1827.52,-442.11"/>
<polygon fill="#7a24d0" stroke="black" points="1824.07,-441.49 1825,-452.05 1830.85,-443.22 1824.07,-441.49"/>
</g>
<!-- rich_logging&#45;&gt;main_py -->
<g id="edge55" class="edge">
<title>rich_logging&#45;&gt;main_py</title><style>.edge>path:hover{stroke-width:8}</style>
<path fill="none" stroke="black" d="M1536.78,-188.96C1512.08,-167.64 1464.34,-129.53 1417,-109 1346.54,-78.45 1209.05,-139.19 1248,-73"/>
</g>
<!-- rich_text&#45;&gt;rich__inspect -->
<g id="edge56" class="edge">
<title>rich_text&#45;&gt;rich__inspect</title><style>.edge>path:hover{stroke-width:8}</style>
<path fill="none" stroke="black" d="M1669,-279.64C1662.59,-263.06 1670.75,-244.83 1680.56,-230.71"/>
<polygon fill="#7a0ce9" stroke="black" points="1683.53,-232.58 1686.77,-222.5 1677.95,-228.36 1683.53,-232.58"/>
</g>
<!-- rich_text&#45;&gt;rich__log_render -->
<g id="edge57" class="edge">
<title>rich_text&#45;&gt;rich__log_render</title><style>.edge>path:hover{stroke-width:8}</style>
<path fill="none" stroke="black" d="M1669.64,-353.24C1648.56,-340.19 1615.21,-319.54 1589.73,-303.76"/>
<polygon fill="#7a0ce9" stroke="black" points="1591.42,-300.69 1581.08,-298.4 1587.74,-306.64 1591.42,-300.69"/>
</g>
<!-- rich_text&#45;&gt;rich_highlighter -->
<g id="edge59" class="edge">
<title>rich_text&#45;&gt;rich_highlighter</title><style>.edge>path:hover{stroke-width:8}</style>
<path fill="none" stroke="black" d="M1700.03,-349.61C1706.98,-338.35 1716.42,-323.06 1724.59,-309.83"/>
<polygon fill="#7a0ce9" stroke="black" points="1727.72,-311.42 1730,-301.08 1721.76,-307.75 1727.72,-311.42"/>
</g>
<!-- rich_text&#45;&gt;rich_logging -->
<g id="edge60" class="edge">
<title>rich_text&#45;&gt;rich_logging</title><style>.edge>path:hover{stroke-width:8}</style>
<path fill="none" stroke="black" d="M1669,-279.64C1657.12,-248.93 1624.2,-229.98 1596.61,-219.07"/>
<polygon fill="#7a0ce9" stroke="black" points="1597.71,-215.75 1587.12,-215.55 1595.27,-222.31 1597.71,-215.75"/>
<path fill="none" stroke="black" d="M1687.02,-348.69C1683.72,-331.39 1677.7,-304.12 1669,-281.64"/>
</g>
<!-- rich_text&#45;&gt;rich_traceback -->
<g id="edge61" class="edge">
<title>rich_text&#45;&gt;rich_traceback</title><style>.edge>path:hover{stroke-width:8}</style>
<path fill="none" stroke="black" d="M1825,-454.05C1810.98,-497.52 1672.66,-518.31 1599.64,-526.32"/>
<path fill="none" stroke="black" d="M1719.37,-372.53C1760.5,-380.61 1829.97,-400.47 1826.97,-442.2"/>
<polygon fill="#7a0ce9" stroke="black" points="1823.53,-441.56 1825,-452.05 1830.39,-442.93 1823.53,-441.56"/>
</g>
<!-- rich_traceback&#45;&gt;rich__extension -->
<g id="edge62" class="edge">
<title>rich_traceback&#45;&gt;rich__extension</title><style>.edge>path:hover{stroke-width:8}</style>
<path fill="none" stroke="black" d="M1597.25,-523.87C1653.08,-514.75 1754.24,-496.82 1839,-474.26 1843.92,-472.95 1849.02,-471.46 1854.08,-469.88"/>
<polygon fill="#702db4" stroke="black" points="1855.25,-473.18 1863.7,-466.79 1853.11,-466.52 1855.25,-473.18"/>
</g>
<!-- rich_traceback&#45;&gt;rich_console -->
<g id="edge63" class="edge">
<title>rich_traceback&#45;&gt;rich_console</title><style>.edge>path:hover{stroke-width:8}</style>
<path fill="none" stroke="black" d="M1576.39,-506.79C1584.83,-497.44 1594.5,-486.73 1602.91,-477.41"/>
<polygon fill="#702db4" stroke="black" points="1573.74,-504.5 1569.63,-514.27 1578.93,-509.19 1573.74,-504.5"/>
<polygon fill="#702db4" stroke="black" points="1605.52,-479.74 1609.62,-469.97 1600.33,-475.05 1605.52,-479.74"/>
</g>
<!-- rich_traceback&#45;&gt;rich_logging -->
<g id="edge64" class="edge">
<title>rich_traceback&#45;&gt;rich_logging</title><style>.edge>path:hover{stroke-width:8}</style>
<path fill="none" stroke="black" d="M1552.23,-513.37C1550.32,-497.6 1549.07,-473.74 1555,-454.05"/>
</g>
<!-- uvc -->
<g id="node32" class="node">
<title>uvc</title><style>.edge>path:hover{stroke-width:8}</style>
<ellipse fill="#ce3bce" stroke="black" cx="765" cy="-280.64" rx="27" ry="18"/>
<text text-anchor="middle" x="765" y="-278.14" font-family="Helvetica,sans-Serif" font-size="10.00" fill="#ffffff">uvc</text>
</g>
<!-- uvc&#45;&gt;launchables_eye -->
<g id="edge65" class="edge">
<title>uvc&#45;&gt;launchables_eye</title><style>.edge>path:hover{stroke-width:8}</style>
<path fill="none" stroke="black" d="M746.18,-267.37C740.81,-264.35 734.84,-261.41 729,-259.43 651.83,-233.14 316.28,-271.03 366,-206.43"/>
</g>
<!-- uvc&#45;&gt;launchables_service -->
<g id="edge66" class="edge">
<title>uvc&#45;&gt;launchables_service</title><style>.edge>path:hover{stroke-width:8}</style>
<path fill="none" stroke="black" d="M783.81,-267.34C789.18,-264.32 795.16,-261.39 801,-259.43 911.57,-222.22 954.69,-271.47 1061,-223.43 1094.44,-208.32 1125.34,-179.37 1145.25,-157.92"/>
<polygon fill="#ce3bce" stroke="black" points="1147.95,-160.16 1152.07,-150.4 1142.76,-155.45 1147.95,-160.16"/>
</g>
<!-- uvc&#45;&gt;launchables_world -->
<g id="edge67" class="edge">
<title>uvc&#45;&gt;launchables_world</title><style>.edge>path:hover{stroke-width:8}</style>
<path fill="none" stroke="black" d="M744.85,-268.25C739.69,-265.36 734.15,-262.26 729,-259.43 685.63,-235.53 592,-236.93 631,-206.43"/>
</g>
<!-- zmq -->
<g id="node33" class="node">
<title>zmq</title><style>.edge>path:hover{stroke-width:8}</style>
<ellipse fill="#db0570" stroke="black" cx="1258" cy="-280.64" rx="27" ry="18"/>
<text text-anchor="middle" x="1258" y="-278.14" font-family="Helvetica,sans-Serif" font-size="10.00" fill="#ffffff">zmq</text>
</g>
<!-- zmq&#45;&gt;launchables_eye -->
<g id="edge68" class="edge">
<title>zmq&#45;&gt;launchables_eye</title><style>.edge>path:hover{stroke-width:8}</style>
<path fill="none" stroke="black" d="M1232.49,-274.6C1209.64,-270.19 1175.17,-263.83 1145,-259.43 1074.85,-249.18 881.31,-270.16 828,-223.43 810.67,-208.24 805.41,-182.18 804.2,-161.63"/>
<polygon fill="#db0570" stroke="black" points="807.69,-161.36 803.89,-151.47 800.69,-161.57 807.69,-161.36"/>
</g>
<!-- zmq&#45;&gt;launchables_marker_detectors -->
<g id="edge69" class="edge">
<title>zmq&#45;&gt;launchables_marker_detectors</title><style>.edge>path:hover{stroke-width:8}</style>
<path fill="none" stroke="black" d="M1248,-204.43C1239.24,-179.97 1261.69,-161.89 1286.84,-149.82"/>
<polygon fill="#db0570" stroke="black" points="1288.48,-152.92 1296.18,-145.64 1285.62,-146.53 1288.48,-152.92"/>
</g>
<!-- zmq&#45;&gt;launchables_player -->
<g id="edge70" class="edge">
<title>zmq&#45;&gt;launchables_player</title><style>.edge>path:hover{stroke-width:8}</style>
<path fill="none" stroke="black" d="M1257.66,-262.59C1256.9,-247.45 1254.62,-224.9 1248,-206.43"/>
<path fill="none" stroke="black" d="M1248,-204.43C1246.64,-200.63 1154.46,-168.23 1095.42,-147.83"/>
<polygon fill="#db0570" stroke="black" points="1096.48,-144.49 1085.89,-144.54 1094.2,-151.11 1096.48,-144.49"/>
</g>
<!-- zmq&#45;&gt;launchables_service -->
<g id="edge71" class="edge">
<title>zmq&#45;&gt;launchables_service</title><style>.edge>path:hover{stroke-width:8}</style>
<path fill="none" stroke="black" d="M1248,-204.43C1240.41,-183.26 1222.49,-165.9 1205.52,-153.41"/>
<polygon fill="#db0570" stroke="black" points="1207.52,-150.54 1197.32,-147.68 1203.51,-156.28 1207.52,-150.54"/>
</g>
<!-- zmq&#45;&gt;launchables_world -->
<g id="edge72" class="edge">
<title>zmq&#45;&gt;launchables_world</title><style>.edge>path:hover{stroke-width:8}</style>
<path fill="none" stroke="black" d="M1236.22,-269.9C1182.1,-245.71 1040.74,-182.51 969.04,-150.45"/>
<polygon fill="#db0570" stroke="black" points="970.37,-147.22 959.82,-146.33 967.52,-153.61 970.37,-147.22"/>
</g>
<!-- zmq&#45;&gt;main_py -->
<g id="edge73" class="edge">
<title>zmq&#45;&gt;main_py</title><style>.edge>path:hover{stroke-width:8}</style>
<path fill="none" stroke="black" d="M1248,-204.43C1228.29,-149.44 1218.56,-123.45 1248,-73"/>
</g>
<!-- zmq_backend -->
<g id="node34" class="node">
<title>zmq_backend</title><style>.edge>path:hover{stroke-width:8}</style>
<ellipse fill="#b65385" stroke="black" cx="1369" cy="-366.84" rx="44.98" ry="18"/>
<text text-anchor="middle" x="1369" y="-364.34" font-family="Helvetica,sans-Serif" font-size="10.00" fill="#ffffff">zmq.backend</text>
</g>
<!-- zmq_backend&#45;&gt;zmq -->
<g id="edge74" class="edge">
<title>zmq_backend&#45;&gt;zmq</title><style>.edge>path:hover{stroke-width:8}</style>
<path fill="none" stroke="black" d="M1348.9,-350.6C1330.53,-336.66 1303.29,-315.99 1283.41,-300.92"/>
<polygon fill="#b65385" stroke="black" points="1285.48,-298.09 1275.4,-294.84 1281.25,-303.67 1285.48,-298.09"/>
</g>
<!-- zmq_constants -->
<g id="node35" class="node">
<title>zmq_constants</title><style>.edge>path:hover{stroke-width:8}</style>
<ellipse fill="#b65385" stroke="black" cx="1479" cy="-366.84" rx="47.86" ry="18"/>
<text text-anchor="middle" x="1479" y="-364.34" font-family="Helvetica,sans-Serif" font-size="10.00" fill="#ffffff">zmq.constants</text>
</g>
<!-- zmq_constants&#45;&gt;zmq -->
<g id="edge75" class="edge">
<title>zmq_constants&#45;&gt;zmq</title><style>.edge>path:hover{stroke-width:8}</style>
<path fill="none" stroke="black" d="M1452.57,-351.71C1443.34,-347.03 1432.83,-341.96 1423,-337.85 1378.59,-319.29 1325.68,-302.09 1291.96,-291.73"/>
<polygon fill="#b65385" stroke="black" points="1292.74,-288.31 1282.15,-288.74 1290.69,-295.01 1292.74,-288.31"/>
</g>
<!-- zmq_sugar -->
<g id="node36" class="node">
<title>zmq_sugar</title><style>.edge>path:hover{stroke-width:8}</style>
<ellipse fill="#b83d7a" stroke="black" cx="1269" cy="-366.84" rx="37.17" ry="18"/>
<text text-anchor="middle" x="1269" y="-364.34" font-family="Helvetica,sans-Serif" font-size="10.00" fill="#ffffff">zmq.sugar</text>
</g>
<!-- zmq_sugar&#45;&gt;zmq -->
<g id="edge76" class="edge">
<title>zmq_sugar&#45;&gt;zmq</title><style>.edge>path:hover{stroke-width:8}</style>
<path fill="none" stroke="black" d="M1266.77,-348.8C1265.27,-337.28 1263.25,-321.81 1261.52,-308.62"/>
<polygon fill="#b83d7a" stroke="black" points="1264.99,-308.12 1260.22,-298.65 1258.05,-309.02 1264.99,-308.12"/>
</g>
</g>
</svg>
